# xmcd CD database file
#
# Track frame offsets:
#	182
#	20822
#	33455
#	43997
#	58482
#	73425
#	87970
#	98840
#	111987
#	126520
#	141437
#	154455
#	174110
#	186905
#	199522
#	210505
#	223932
#	241060
#	258180
#
# Disc length: 3638 seconds
#
# Revision: 0
# Processed by: cddbd v1.5.2PL0 Copyright (c) Steve Scherf et al.
# Submitted via: CdAid (MTCDDB.DLL V2003.12.21)
#
DISCID=2d0e3413
DTITLE=João Carlos - Grãos de Areia
DYEAR=1995
DGENRE=Gospel
TTITLE0=Grão de Areia
TTITLE1=Cante Conosco
TTITLE2=Cântico dos Cânticos
TTITLE3=Terra, Pão e Lar
TTITLE4=Nem Precisava
TTITLE5=Celebremos
TTITLE6=Amanhecer
TTITLE7=Quem Devia
TTITLE8=Verdadeiro
TTITLE9=Ladainha da Palavra
TTITLE10=Maravilhoso
TTITLE11=Grande Mesa
TTITLE12=Canto dos Três Jovens
TTITLE13=Todo Povo Sofredor
TTITLE14=Pedaços de Si
TTITLE15=Ah! Se o Povo
TTITLE16=Cores da Vida
TTITLE17=Povo Unido
TTITLE18=Quem Me Tocou??
EXTD=ID3G:  38 YEAR: 1995
EXTT0=
EXTT1=
EXTT2=
EXTT3=
EXTT4=
EXTT5=
EXTT6=
EXTT7=
EXTT8=
EXTT9=
EXTT10=
EXTT11=
EXTT12=
EXTT13=
EXTT14=
EXTT15=
EXTT16=
EXTT17=
EXTT18=
PLAYORDER=
